<?xml version="1.0" encoding="utf-8"?>
<!-- Generator: Adobe Illustrator 23.0.1, SVG Export Plug-In . SVG Version: 6.00 Build 0)  -->
<svg version="1.1" id="logo" xmlns="http://www.w3.org/2000/svg" xmlns:xlink="http://www.w3.org/1999/xlink" x="0px" y="0px"
	 viewBox="0 0 187.6 216.6" style="enable-background:new 0 0 187.6 216.6;" xml:space="preserve">
<style type="text/css">
	.st0{fill:#F0AC42;}
	.st1{fill:#FACF47;}
	.st2{fill:#E78853;}
	.st3{fill:#DD4B45;}
	.st4{fill:#BCB9AF;}
	.st5{fill:#808079;}
	.st6{fill:#B4C986;}
	.st7{fill:#89BD56;}
	.st8{fill:#53A154;}
	.st9{fill:#008A4E;}
	.st10{fill:#0066AD;}
	.st11{fill:#52BDD8;}
	.st12{fill:#9762A1;}
	.st13{fill:#543282;}
	.st14{fill:#00747F;}
	.st15{fill:#6CA3AC;}
	.st16{fill:#5860A5;}
	.st17{fill:#86A0CF;}
</style>
<g>
	<polygon class="st0" points="46.9,81.2 0,108.3 0,54.2 	"/>
	<polygon class="st1" points="0,108.3 46.9,81.2 46.9,135.4 	"/>
	<polygon class="st2" points="46.9,135.4 0,162.5 0,108.3 	"/>
	<polygon class="st3" points="0,162.5 46.9,135.4 46.9,189.5 	"/>
	<polygon class="st4" points="46.9,27.1 0,54.2 0,0 	"/>
	<polygon class="st5" points="0,54.2 46.9,27.1 46.9,81.2 	"/>
	<polygon class="st6" points="93.8,54.2 46.9,27.1 46.9,81.2 	"/>
	<polygon class="st7" points="46.9,81.2 93.8,108.3 93.8,54.2 	"/>
	<polygon class="st8" points="93.8,108.3 46.9,81.2 46.9,135.4 	"/>
	<polygon class="st9" points="46.9,135.4 93.8,162.5 93.8,108.3 	"/>
	<polygon class="st10" points="46.9,189.5 93.8,216.6 93.8,162.5 	"/>
	<polygon class="st11" points="93.8,162.5 46.9,135.4 46.9,189.5 	"/>
	<polygon class="st12" points="93.8,162.5 140.7,189.5 140.7,135.4 	"/>
	<polygon class="st13" points="140.7,189.5 93.8,162.5 93.8,216.6 	"/>
	<polygon class="st14" points="187.6,54.2 140.7,81.2 140.7,27.1 	"/>
	<polygon class="st15" points="140.7,27.1 187.6,0 187.6,54.2 	"/>
	<polygon class="st16" points="187.6,162.5 140.7,189.5 140.7,135.4 	"/>
	<polygon class="st17" points="140.7,135.4 187.6,108.3 187.6,162.5 	"/>
</g>
</svg>
