<svg height="512pt" viewBox="0 0 512 512" width="512pt" xmlns="http://www.w3.org/2000/svg"><path d="m512 256c0 141.386719-114.613281 256-256 256s-256-114.613281-256-256 114.613281-256 256-256 256 114.613281 256 256zm0 0" fill="#ffda2d"/><path d="m512 256c0-10.050781-.597656-19.964844-1.726562-29.714844l-112.28125-112.277344-283.929688 283.929688 112.351562 112.351562c9.707032 1.117188 19.578126 1.710938 29.585938 1.710938 141.386719 0 256-114.613281 256-256zm0 0" fill="#fdbf00"/><path d="m398 180.5625v217.4375h-284v-217.4375l21.800781-16.640625h240.398438zm0 0" fill="#f2f2fc"/><path d="m398 180.5625v217.4375h-142v-234.078125h120.199219zm0 0" fill="#d8d8fc"/><path d="m264.320312 214.398438h108.71875v16.640624h-108.71875zm0 0" fill="#a3a3d1"/><path d="m264.320312 247.679688h108.71875v16.640624h-108.71875zm0 0" fill="#a3a3d1"/><path d="m138.960938 280.960938h234.078124v16.640624h-234.078124zm0 0" fill="#d8d8fc"/><path d="m138.960938 314.242188h108.71875v16.640624h-108.71875zm0 0" fill="#d8d8fc"/><path d="m138.960938 347.523438h108.71875v16.640624h-108.71875zm0 0" fill="#d8d8fc"/><path d="m373.039062 364.164062h-108.71875v-49.921874h108.71875zm0 0" fill="#a3a3d1"/><path d="m256 280.960938h117.039062v16.640624h-117.039062zm0 0" fill="#a3a3d1"/><path d="m138.960938 214.398438v49.921874h108.71875v-49.921874zm0 0" fill="#d8d8fc"/><path d="m398 114h-83.757812l-16.640626 38.480469 16.640626 28.082031h83.757812zm0 0" fill="#47568c"/><path d="m114 114h200.242188v66.5625h-200.242188zm0 0" fill="#4bb9ec"/><path d="m256 114h58.242188v66.5625h-58.242188zm0 0" fill="#0095ff"/><g fill="#f2f2fc"><path d="m147.28125 138.960938h16.640625v16.640624h-16.640625zm0 0"/><path d="m181.117188 138.960938h16.640624v16.640624h-16.640624zm0 0"/><path d="m214.398438 138.960938h16.640624v16.640624h-16.640624zm0 0"/></g></svg>